<svg width="174" height="183" viewBox="0 0 174 183" fill="none" xmlns="http://www.w3.org/2000/svg">
<path d="M42.7391 168H35.0047V146.182H42.803C44.9976 146.182 46.8868 146.619 48.4706 147.492C50.0544 148.359 51.2725 149.605 52.1247 151.232C52.9841 152.858 53.4138 154.804 53.4138 157.07C53.4138 159.342 52.9841 161.295 52.1247 162.929C51.2725 164.562 50.0473 165.816 48.4493 166.69C46.8584 167.563 44.955 168 42.7391 168ZM39.6176 164.048H42.5473C43.911 164.048 45.058 163.806 45.9884 163.323C46.9259 162.833 47.629 162.077 48.0977 161.054C48.5736 160.024 48.8115 158.696 48.8115 157.07C48.8115 155.457 48.5736 154.14 48.0977 153.117C47.629 152.094 46.9294 151.342 45.999 150.859C45.0686 150.376 43.9216 150.134 42.558 150.134H39.6176V164.048ZM56.7456 168V151.636H61.1455V154.491H61.316C61.6143 153.476 62.115 152.709 62.8181 152.19C63.5212 151.665 64.3309 151.402 65.2471 151.402C65.4743 151.402 65.7194 151.416 65.9822 151.445C66.2449 151.473 66.4758 151.512 66.6746 151.562V155.589C66.4616 155.525 66.1668 155.468 65.7904 155.418C65.414 155.369 65.0695 155.344 64.757 155.344C64.0894 155.344 63.4928 155.489 62.9672 155.781C62.4488 156.065 62.0368 156.462 61.7314 156.974C61.4331 157.485 61.284 158.075 61.284 158.742V168H56.7456ZM75.6528 168.32C73.998 168.32 72.5669 167.968 71.3595 167.265C70.1592 166.555 69.2323 165.567 68.5789 164.303C67.9255 163.032 67.5988 161.558 67.5988 159.882C67.5988 158.192 67.9255 156.714 68.5789 155.45C69.2323 154.179 70.1592 153.192 71.3595 152.489C72.5669 151.778 73.998 151.423 75.6528 151.423C77.3076 151.423 78.7352 151.778 79.9355 152.489C81.1428 153.192 82.0732 154.179 82.7267 155.45C83.3801 156.714 83.7068 158.192 83.7068 159.882C83.7068 161.558 83.3801 163.032 82.7267 164.303C82.0732 165.567 81.1428 166.555 79.9355 167.265C78.7352 167.968 77.3076 168.32 75.6528 168.32ZM75.6741 164.804C76.4269 164.804 77.0555 164.591 77.5597 164.165C78.064 163.732 78.444 163.142 78.6997 162.396C78.9624 161.651 79.0938 160.802 79.0938 159.85C79.0938 158.898 78.9624 158.05 78.6997 157.304C78.444 156.558 78.064 155.969 77.5597 155.536C77.0555 155.102 76.4269 154.886 75.6741 154.886C74.9142 154.886 74.2749 155.102 73.7565 155.536C73.2451 155.969 72.858 156.558 72.5953 157.304C72.3396 158.05 72.2117 158.898 72.2117 159.85C72.2117 160.802 72.3396 161.651 72.5953 162.396C72.858 163.142 73.2451 163.732 73.7565 164.165C74.2749 164.591 74.9142 164.804 75.6741 164.804ZM91.1961 158.54V168H86.6578V151.636H90.983V154.523H91.1748C91.537 153.572 92.1443 152.819 92.9965 152.265C93.8488 151.704 94.8822 151.423 96.0967 151.423C97.233 151.423 98.2238 151.672 99.069 152.169C99.9142 152.666 100.571 153.376 101.04 154.3C101.509 155.216 101.743 156.31 101.743 157.581V168H97.2046V158.391C97.2117 157.389 96.9561 156.608 96.4376 156.047C95.9191 155.479 95.2053 155.195 94.2963 155.195C93.6855 155.195 93.1457 155.326 92.6769 155.589C92.2153 155.852 91.8531 156.235 91.5903 156.739C91.3346 157.237 91.2032 157.837 91.1961 158.54ZM112.692 174.477C111.222 174.477 109.961 174.275 108.91 173.87C107.866 173.472 107.035 172.929 106.417 172.24C105.799 171.551 105.398 170.777 105.213 169.918L109.411 169.353C109.539 169.68 109.741 169.985 110.018 170.269C110.295 170.553 110.661 170.781 111.115 170.951C111.577 171.129 112.138 171.217 112.799 171.217C113.786 171.217 114.599 170.976 115.238 170.493C115.884 170.017 116.208 169.218 116.208 168.096V165.102H116.016C115.817 165.557 115.519 165.987 115.121 166.391C114.723 166.796 114.212 167.126 113.587 167.382C112.962 167.638 112.216 167.766 111.35 167.766C110.121 167.766 109.002 167.482 107.994 166.913C106.992 166.338 106.193 165.461 105.597 164.282C105.007 163.096 104.713 161.597 104.713 159.786C104.713 157.933 105.014 156.384 105.618 155.141C106.222 153.898 107.024 152.968 108.026 152.35C109.034 151.732 110.139 151.423 111.339 151.423C112.255 151.423 113.022 151.58 113.64 151.892C114.258 152.197 114.755 152.581 115.132 153.043C115.515 153.497 115.81 153.945 116.016 154.385H116.186V151.636H120.693V168.16C120.693 169.552 120.352 170.717 119.67 171.654C118.988 172.592 118.044 173.295 116.836 173.763C115.636 174.239 114.255 174.477 112.692 174.477ZM112.788 164.357C113.519 164.357 114.137 164.175 114.642 163.813C115.153 163.444 115.544 162.918 115.813 162.237C116.09 161.548 116.229 160.724 116.229 159.765C116.229 158.806 116.094 157.975 115.824 157.272C115.554 156.562 115.164 156.011 114.652 155.621C114.141 155.23 113.519 155.035 112.788 155.035C112.042 155.035 111.414 155.237 110.902 155.642C110.391 156.04 110.004 156.594 109.741 157.304C109.478 158.014 109.347 158.835 109.347 159.765C109.347 160.71 109.478 161.526 109.741 162.215C110.011 162.897 110.398 163.426 110.902 163.803C111.414 164.172 112.042 164.357 112.788 164.357ZM131.698 168.32C130.043 168.32 128.612 167.968 127.404 167.265C126.204 166.555 125.277 165.567 124.624 164.303C123.97 163.032 123.644 161.558 123.644 159.882C123.644 158.192 123.97 156.714 124.624 155.45C125.277 154.179 126.204 153.192 127.404 152.489C128.612 151.778 130.043 151.423 131.698 151.423C133.353 151.423 134.78 151.778 135.98 152.489C137.188 153.192 138.118 154.179 138.772 155.45C139.425 156.714 139.752 158.192 139.752 159.882C139.752 161.558 139.425 163.032 138.772 164.303C138.118 165.567 137.188 166.555 135.98 167.265C134.78 167.968 133.353 168.32 131.698 168.32ZM131.719 164.804C132.472 164.804 133.1 164.591 133.605 164.165C134.109 163.732 134.489 163.142 134.745 162.396C135.007 161.651 135.139 160.802 135.139 159.85C135.139 158.898 135.007 158.05 134.745 157.304C134.489 156.558 134.109 155.969 133.605 155.536C133.1 155.102 132.472 154.886 131.719 154.886C130.959 154.886 130.32 155.102 129.801 155.536C129.29 155.969 128.903 156.558 128.64 157.304C128.384 158.05 128.257 158.898 128.257 159.85C128.257 160.802 128.384 161.651 128.64 162.396C128.903 163.142 129.29 163.732 129.801 164.165C130.32 164.591 130.959 164.804 131.719 164.804Z" fill="white"/>
<path d="M148.286 74.6125C146.378 73.4235 144.418 72.3331 142.392 71.3626C142.241 71.2585 142.074 71.177 141.895 71.1243C141.174 70.7883 140.445 70.4665 139.706 70.1628C139.561 70.1029 139.416 70.0168 139.277 69.9129C139.169 69.8009 139.051 69.6961 138.925 69.601C138.683 69.3493 138.48 69.0535 138.353 68.7687C137.322 66.4488 134.429 64.5151 131.917 64.387C129.682 64.273 127.689 64.7347 125.66 65.7087C124.68 66.1791 123.253 65.7948 122.037 65.6907C121.438 65.6397 120.871 65.3009 120.271 65.1702C118.789 64.8458 118.012 63.818 117.301 62.7221C116.988 62.119 116.623 61.5456 116.209 61.0071C116.062 60.7214 115.958 60.4372 115.891 60.1558C115.957 59.8047 115.992 59.4462 115.992 59.0852C115.992 58.8432 115.975 58.6031 115.945 58.3639C116.099 57.8243 116.366 57.285 116.724 56.7377C117.214 55.9885 117.532 55.0765 117.712 54.1947C117.885 53.3496 117.576 52.6562 116.948 52.0558C116.845 51.9036 116.726 51.7576 116.591 51.624C116.336 51.3715 116.042 51.1778 115.728 51.0372C114.323 49.8365 113.002 48.5254 111.482 47.4978C109.091 45.8805 106.531 44.4978 103.985 43.1197C102.63 42.3868 101.175 41.8204 99.7258 41.2793C98.4245 40.7928 97.0862 40.3859 95.736 40.0562C94.9217 39.8572 94.253 40.1807 94.1057 41.119C93.8364 42.8421 93.474 44.5545 94.4373 46.2264C94.6668 46.6244 94.4646 47.2453 94.6019 47.7247C94.702 48.0752 94.9173 48.3932 95.1377 48.7507C95.0969 49.3233 95.1521 49.9048 95.3193 50.4765C95.5244 51.8314 95.7269 53.1862 95.9464 54.5393C96.0015 54.8779 96.0957 55.2284 96.2538 55.5304C96.9307 56.8216 96.6016 57.8046 95.9258 59.1344C94.9417 61.0699 94.6389 63.3548 94.1122 65.5071C93.954 66.155 93.8475 66.8145 93.7471 67.4766C93.5394 68.0411 93.4173 68.6362 93.3894 69.2419C93.0849 70.1048 92.775 70.966 92.5074 71.8405C92.4443 72.0474 92.5951 72.3234 92.6647 72.5628C92.7298 72.7842 92.8908 73.001 92.8808 73.2151C92.8618 73.6442 92.7553 74.069 92.6846 74.4964C92.8175 74.5106 92.9511 74.5249 93.0842 74.5394C93.1112 74.8862 93.169 75.2283 93.2567 75.5626C92.2246 76.1666 91.187 76.7642 90.2402 77.4784C89.8397 77.7803 89.4204 78.0151 88.9893 78.2051C88.2639 78.4155 87.5408 78.6333 86.8178 78.8521C86.0044 79.0161 85.1776 79.1352 84.3687 79.3181C83.0501 79.6155 81.6303 79.6164 80.3977 80.1039C80.1899 80.1863 79.9872 80.2849 79.7886 80.3942C77.3441 81.0654 75.2862 82.5395 73.2971 84.0762C67.4582 88.587 59.4099 90.5466 52.52 93.1263C43.7513 96.4094 34.9815 99.6918 26.2129 102.975C24.147 103.748 24.9395 106.976 26.9465 106.468C27.3848 107.027 28.153 107.377 28.8416 107.113C37.9591 103.613 47.0766 100.113 56.195 96.6121C58.2926 95.9644 60.3612 95.2267 62.3928 94.4034C62.8907 94.9704 63.6976 95.2338 64.5364 94.7106C66.7171 93.3477 68.9347 91.9239 71.2861 90.819C71.3721 90.7858 71.4543 90.7471 71.5347 90.7052C72.5387 90.2455 73.5662 89.8432 74.6272 89.5331C76.3733 89.0214 78.1661 88.6719 79.9952 88.7517C81.8768 88.8331 83.554 89.4979 85.3831 89.8441C85.5448 89.8746 85.7041 89.9005 85.8631 89.9247L86.4036 90.0206C86.4532 90.0314 86.5039 90.0413 86.5555 90.0474C87.1057 90.146 87.6562 90.2438 88.2066 90.3422C88.9603 90.4766 89.7168 90.2473 90.1414 89.662C90.1504 89.6558 90.1595 89.6512 90.1686 89.6451C90.1965 89.6253 90.2255 89.6075 90.2534 89.5886C90.4441 89.5223 90.636 89.449 90.8284 89.3673C91.7339 88.9792 92.5933 88.4793 93.4915 88.0823C96.6953 87.1996 100.173 87.8646 102.824 90.1943C104.69 92.7564 106.548 95.3234 108.464 97.8477C109.061 98.6343 109.928 99.2194 110.659 99.9095C111.033 100.262 111.371 100.65 111.741 101.008C112.386 101.632 113.042 102.244 113.81 102.969C114.6 107.797 114.758 112.991 116.472 117.885C116.557 118.181 116.648 118.475 116.744 118.766C116.92 119.838 117.281 120.88 117.807 121.832C117.946 122.833 118.247 123.745 119.475 124.192C119.701 125.828 119.816 127.426 120.192 128.962C120.285 129.343 120.687 129.643 121.076 129.955C121.319 130.267 121.591 130.555 121.89 130.814C121.96 130.931 122.012 131.053 122.024 131.173C122.15 132.335 122.196 133.506 122.291 134.673C122.309 134.895 122.352 135.177 122.497 135.314C122.834 135.633 123.21 136.003 123.631 136.102C123.806 136.143 124.134 135.549 124.422 135.209C124.586 136.367 124.689 137.604 124.968 138.802C125.067 139.232 125.526 139.754 125.932 139.878C126.196 139.959 126.66 139.395 127.104 139.068C127.485 140.38 127 142.306 128.968 143C130.227 141.29 130.084 139.233 130.396 137.292C130.753 135.075 131.09 132.854 131.389 130.629C131.652 128.668 131.959 126.704 132.051 124.731C132.216 121.195 132.196 117.65 132.329 114.112C132.412 111.886 132.76 109.665 132.761 107.442C132.764 104.21 132.582 100.977 132.434 97.7462C132.383 96.6299 132.451 95.404 132.008 94.4335C131.417 93.1423 130.478 91.9667 129.515 90.8932C129.24 90.5866 128.959 90.2857 128.674 89.9881C126.93 87.8653 125.045 85.8547 123.175 83.8385C123.024 83.5965 122.907 83.3699 122.893 83.3466C122.925 83.326 122.955 83.3053 122.987 83.2849C126.057 81.6746 128.958 79.8127 131.727 77.7527C131.813 77.7142 131.899 77.6765 131.984 77.6371C133.513 76.9346 135.084 76.3117 136.574 75.5358C138.569 74.4972 140.691 74.7544 142.766 74.8844C144.736 75.0081 146.684 75.4363 149 75.784C148.693 75.2615 148.578 74.7955 148.286 74.6125Z" fill="white"/>
<path d="M25 96.7076L34.6481 93.8106C37.9784 92.8106 42.9902 95.535 45.8423 99.8956C48.6943 104.256 48.3067 108.602 44.9764 109.602L35.3283 112.499" stroke="white" stroke-width="5" stroke-linecap="round" stroke-linejoin="round"/>
<rect x="1.21" y="1.21" width="171.58" height="180.58" stroke="white" stroke-width="2.42"/>
</svg>
